# xmcd CD database file
#
# Track frame offsets:
#	150
#	13557
#	26630
#	40852
#	59539
#	71147
#	87187
#	95767
#	106462
#	119332
#	133225
#	162457
#
# Disc length: 2523 seconds
#
# Revision: 0
# Processed by: cddbd v1.4PL0 Copyright (c) Steve Scherf et al.
# Submitted via: Feurio! 1.63 - http://www.feurio.com
#
DISCID=aa09d90c
DTITLE=Knucklebone Oscar and His Hitmen - This is Knucklebone Oscar and His Hitmen
DYEAR=1996
DGENRE=Blues
TTITLE0=Sheik of the Jungle
TTITLE1=Rough Dried Woman
TTITLE2=Stomach Ache
TTITLE3=I Smell a Rat
TTITLE4=Too Much Alcohol
TTITLE5=Just Like the Devil
TTITLE6=Funky Grind
TTITLE7=I'm a Mojo Man
TTITLE8=Zaiti !
TTITLE9=She's Gone
TTITLE10=West Side Baby
TTITLE11=RAY's Boogie
EXTD=
EXTT0=
EXTT1=
EXTT2=
EXTT3=
EXTT4=
EXTT5=
EXTT6=
EXTT7=
EXTT8=
EXTT9=
EXTT10=
EXTT11=
PLAYORDER=
